<?xml version="1.0" encoding="UTF-8"?>
<svg width="40px" height="40px" viewBox="0 0 40 40" version="1.1" xmlns="http://www.w3.org/2000/svg" xmlns:xlink="http://www.w3.org/1999/xlink">
    <title>Picto/Vehicle/Car</title>
    <g id="Picto/Vehicle/Car" stroke="none" stroke-width="1" fill="none" fill-rule="evenodd">
        <path d="M19.2502976,14.2477682 C21.7854167,14.7151773 24.1229167,15.9206318 25.966369,17.7104955 C29.2181548,18.6027682 31.0985119,19.7786773 31.7122024,21.2914045 C31.7169643,21.3032227 31.7217262,21.3150409 31.7247024,21.3268591 C32.4443452,23.6195864 31.5717262,24.6595864 30.5854167,25.1323136 C30.546131,25.16245 30.5020833,25.1866773 30.4556548,25.2032227 L30.2770833,25.2629045 C30.2735119,25.26645 30.2681548,25.2688136 30.2622024,25.2682227 C30.2354167,25.2812227 30.2074405,25.2906773 30.1782738,25.2977682 C30.1270833,25.3160864 30.0729167,25.3267227 30.0181548,25.3273136 L28.2925595,25.3214045 C28.1383929,25.6050409 27.9401786,25.8614955 27.7056548,26.0836773 C27.10625,26.6822682 26.2866071,27.0125864 25.4354167,26.9995864 C24.5848214,27.0125864 23.7651786,26.6822682 23.1651786,26.0836773 C22.9217262,25.8549955 22.7193452,25.5867227 22.5645833,25.2918591 L15.3502976,25.2623136 C15.1907738,25.5678136 14.9818452,25.8455409 14.7318452,26.0836773 C13.4675595,27.3050864 11.4544643,27.3050864 10.1907738,26.0836773 C9.58005952,25.5140409 9.2389881,24.7169045 9.25029762,23.8854955 C9.25029762,23.7850409 9.25386905,23.6786773 9.26339286,23.5841318 C9.32708333,22.8584955 9.65684524,22.1813136 10.1907738,21.6814045 C11.353869,20.5699045 13.1592262,20.4641318 14.446131,21.4332227 C14.5431548,21.5100409 14.6395833,21.5927682 14.7318452,21.6814045 C14.9556548,21.8970864 15.1467262,22.1440864 15.3002976,22.4141318 C15.4252976,22.6434045 15.3401786,22.9305864 15.108631,23.0552682 C15.1068452,23.0558591 15.1050595,23.0570409 15.1032738,23.0582227 C14.8669643,23.1834955 14.5729167,23.0995864 14.4395833,22.8691318 C14.3330357,22.6788591 14.1985119,22.5063136 14.0401786,22.3550409 C13.9758929,22.2918136 13.9074405,22.2327227 13.8360119,22.1777682 C12.9431548,21.4999955 11.6854167,21.5756318 10.88125,22.3550409 C10.5098214,22.6977682 10.2800595,23.1651773 10.2372024,23.6668591 C10.23125,23.7377682 10.2282738,23.8086773 10.2282738,23.8854955 C10.2175595,24.4645864 10.4556548,25.0206318 10.8824405,25.41595 C11.7800595,26.2816318 13.2139881,26.2621318 14.0866071,25.3710409 C14.2949405,25.1583136 14.4592262,24.9065864 14.5693452,24.6300409 C14.6401786,24.4385864 14.8235119,24.3115409 15.0294643,24.31095 L22.2556548,24.3464045 C22.2348214,24.19395 22.2235119,24.0397227 22.2235119,23.8854955 C22.2235119,23.7850409 22.2276786,23.6786773 22.2366071,23.5841318 C22.3002976,22.8584955 22.6300595,22.1819045 23.1639881,21.6814045 C24.43125,20.46945 26.4377976,20.46945 27.7050595,21.6814045 C27.9276786,21.8953136 28.1181548,22.13995 28.271131,22.4082227 C28.3979167,22.6345409 28.3151786,22.9205409 28.0866071,23.0464045 C28.0824405,23.0481773 28.078869,23.04995 28.0752976,23.0523136 C27.8389881,23.1775864 27.5449405,23.0942682 27.4116071,22.8632227 C27.3068452,22.6741318 27.1723214,22.5027682 27.0133929,22.3550409 C26.1354167,21.5047227 24.733631,21.5047227 23.8556548,22.3550409 C23.483631,22.6977682 23.253869,23.1651773 23.2110119,23.6668591 C23.2050595,23.7377682 23.2014881,23.8086773 23.2014881,23.8854955 C23.1997024,24.1454955 23.2455357,24.4037227 23.3366071,24.6477682 C23.3407738,24.6572227 23.3449405,24.6672682 23.3479167,24.6773136 C23.8348214,25.8219045 25.1633929,26.3578591 26.3157738,25.8750864 C26.8604167,25.6469955 27.2931548,25.2174045 27.5229167,24.6773136 C27.5967262,24.4923591 27.7776786,24.3706318 27.9776786,24.3700409 L29.93125,24.3765409 L29.9366071,24.3765409 C30.5973214,24.1336773 31.4026786,23.5782227 30.79375,21.6223136 C30.2889881,20.41095 28.5348214,19.3886773 25.5782738,18.5850409 C25.4973214,18.5667227 25.4229167,18.52595 25.3645833,18.4668591 C21.8104167,15.0218591 16.9877976,14.10595 11.0252976,15.7486773 L8.63005952,19.1995864 L8.56577381,20.8423136 C8.56220238,20.9333136 8.53244048,21.0213591 8.48065476,21.0964045 C8.16755952,21.50295 7.99136905,21.99695 7.97767857,22.5086773 C7.97946429,22.65345 7.99255952,22.7976318 8.01696429,22.9400409 C8.06041667,23.2006318 7.88244048,23.44645 7.61994048,23.4895864 C7.61934524,23.4895864 7.61875,23.4895864 7.61755952,23.4901773 C7.35446429,23.5344955 7.10327381,23.3607682 7.05386905,23.0995864 C7.01994048,22.9081318 7.00208333,22.7149045 6.99970238,22.5204955 C7.00744048,21.8610409 7.21458333,21.2181318 7.59494048,20.6768591 L7.66041667,19.0282227 C7.66279762,18.9389955 7.69136905,18.8533136 7.74255952,18.7800409 L10.3151786,15.08095 C10.3800595,14.9875864 10.4741071,14.9190409 10.5830357,14.88595 C13.3842262,14.0119955 16.3502976,13.7933591 19.2502976,14.2477682 Z M18.3744971,16.1207055 C18.3833083,16.1251955 18.3932943,16.1268793 18.4026929,16.126318 C21.2463585,16.6707346 23.0550027,17.4564906 23.9331849,18.5172611 C24.010136,18.6104293 24.0212969,18.7383952 23.963143,18.8427885 C23.9061639,18.9415693 23.7963177,19.0021847 23.6782478,18.9999397 L23.6576883,18.9999397 C17.5908883,18.6463496 13.4919215,18.6238994 11.4741583,18.9438143 C11.4001443,18.9539169 11.324368,18.9398855 11.2591652,18.9045265 C11.0923399,18.8798313 10.9777944,18.7299764 11.0036406,18.5705802 C11.0118644,18.5228736 11.0318364,18.477412 11.0623819,18.4386855 L12.4040328,16.6819597 C12.4386902,16.6353756 12.4874455,16.6000166 12.5432497,16.5809339 C13.9994462,16.0196797 15.9614051,15.8625285 18.3744971,16.1207055 Z M12.8733757,17.1029004 L11.9805082,18.2703092 C13.2187745,18.1558133 14.4617401,18.1058617 15.7052931,18.1187706 C17.6273079,18.1187706 20.0092671,18.1973462 22.8511705,18.3544973 C21.9318693,17.6753797 20.4016589,17.1253506 18.2869726,16.715635 C16.0377688,16.4799082 14.2173763,16.6089967 12.8733757,17.1029004 Z" id="Combined-Shape" fill="#303030"></path>
    </g>
</svg>